<svg width="18" height="20" viewBox="0 0 18 20" fill="none" xmlns="http://www.w3.org/2000/svg">
<g clip-path="url(#clip0_2394_9)">
<path d="M14.5401 19.2C13.4561 20.252 12.2601 20.088 11.1201 19.592C9.90814 19.086 8.80014 19.054 7.52014 19.592C5.92614 20.28 5.08014 20.08 4.12014 19.2C-1.29986 13.62 -0.499863 5.12 5.66014 4.8C7.15414 4.88 8.20014 5.626 9.08014 5.688C10.3881 5.422 11.6401 4.66001 13.0401 4.76001C14.7221 4.896 15.9801 5.56 16.8201 6.754C13.3601 8.83399 14.1801 13.394 17.3581 14.674C16.7221 16.344 15.9061 17.994 14.5381 19.214L14.5401 19.2ZM8.96014 4.74001C8.79814 2.26001 10.8081 0.220019 13.1201 0.0200195C13.4381 2.88001 10.5201 5.02 8.96014 4.74001Z" fill="#101623"/>
</g>
<defs>
<clipPath id="clip0_2394_9">
<rect width="16.84" height="20" fill="white" transform="translate(0.5)"/>
</clipPath>
</defs>
</svg>
