<svg width="21" height="20" viewBox="0 0 21 20" fill="none" xmlns="http://www.w3.org/2000/svg">
<path d="M20.075 10.225C20.075 9.56665 20.0167 8.94165 19.9167 8.33331H10.5V12.0916H15.8917C15.65 13.325 14.9417 14.3666 13.8917 15.075V17.575H17.1083C18.9917 15.8333 20.075 13.2666 20.075 10.225Z" fill="#4285F4"/>
<path d="M10.5002 20C13.2002 20 15.4585 19.1 17.1085 17.575L13.8919 15.075C12.9919 15.675 11.8502 16.0417 10.5002 16.0417C7.89186 16.0417 5.68353 14.2833 4.89186 11.9083H1.5752V14.4833C3.21686 17.75 6.59186 20 10.5002 20Z" fill="#34A853"/>
<path d="M4.89167 11.9083C4.68333 11.3083 4.575 10.6667 4.575 9.99999C4.575 9.33333 4.69167 8.69166 4.89167 8.09166V5.51666H1.575C0.891666 6.86666 0.5 8.38333 0.5 9.99999C0.5 11.6167 0.891666 13.1333 1.575 14.4833L4.89167 11.9083Z" fill="#FBBC05"/>
<path d="M10.5002 3.95833C11.9752 3.95833 13.2919 4.46667 14.3335 5.45834L17.1835 2.60833C15.4585 0.991668 13.2002 0 10.5002 0C6.59186 0 3.21686 2.25 1.5752 5.51667L4.89186 8.09167C5.68353 5.71667 7.89186 3.95833 10.5002 3.95833Z" fill="#EA4335"/>
</svg>
